<svg width="50px" height="50px" version="1.1" viewBox="0 0 50 50" xml:space="preserve" xmlns="http://www.w3.org/2000/svg"><path d="m40.66 13.391h-18.986m0 0a3.7972 3.7972 0 1 0-7.5943 0m7.5943 0a3.7972 3.7972 0 1 1-7.5943 0m0 0h-3.7972m30.377 11.392h-3.7972m0 0a3.7972 3.7972 0 1 0-7.5943 0m7.5943 0a3.7972 3.7972 0 1 1-7.5943 0m0 0h-18.986m30.377 11.392h-18.986m0 0a3.7972 3.7972 0 1 0-7.5943 0m7.5943 0a3.7972 3.7972 0 1 1-7.5943 0m0 0h-3.7972" fill="#1872f0" stroke="currentColor" stroke-linecap="round" stroke-width="1.772"/></svg>
