<svg width="50px" height="50px" version="1.1" viewBox="0 0 50 50" xmlns="http://www.w3.org/2000/svg">
 <path d="m18.978 13.751v7.9234c0 1.4587-1.1825 2.6411-2.6411 2.6411h-7.9234m27.053 12.565h5.2823c1.4587 0 2.6411-1.1825 2.6411-2.6411v-26.411c0-1.4587-1.1825-2.6411-2.6411-2.6411h-18.488c-1.4587 4e-7 -2.6411 1.1825-2.6411 2.6411v2.6411m12.565 5.9234v26.411c0 1.4587-1.1825 2.6411-2.6411 2.6411h-18.488c-1.4587 1e-6 -2.6411-1.1825-2.6411-2.6411v-18.831c-4.84e-5 -0.6295 0.22475-1.2383 0.63387-1.7167l6.4972-7.5801c0.50182-0.5867 1.2352-0.92445 2.0073-0.9244h11.991c1.4587 0 2.6411 1.1825 2.6411 2.6411z" fill="none" stroke="currentColor" stroke-linejoin="round" stroke-width="2"/>
 <path d="m22.462 30.85a3.391 3.391 0 0 0-4.795 0l-3.425 3.426a3.3902 3.3902 0 0 0 4.795 4.794l0.321-0.304m-0.321-4.49a3.39 3.39 0 0 0 4.795 0l3.424-3.426a3.3902 3.3902 0 0 0-4.794-4.795l-1.028 0.961" fill="none" stroke="#1872f0" stroke-linecap="round" stroke-linejoin="round" stroke-width="2"/>
</svg>
