<svg width="600" height="500" version="1.1" viewBox="0 0 158.75 132.29" xml:space="preserve" xmlns="http://www.w3.org/2000/svg"><g><g stroke-linejoin="round"><path d="m24.235 13.466c-4.6449 0-8.4711 3.6101-8.4711 7.9926v95.911c0 4.3825 3.8262 7.9926 8.4711 7.9926h112.95c4.6449 0 8.4711-3.6101 8.4711-7.9926v-85.254c0-4.3825-3.8262-7.9926-8.4711-7.9926h-67.592c0.2444 0-3.9685 9.44e-4 -4.6611-0.74926-0.6905-0.75027-1.5395-1.995-2.4267-3.3302-0.88687-1.3353-1.817-2.76-2.9892-4.0119-1.1721-1.2519-2.7894-2.5653-5.1014-2.5653z" fill="#a4caed" stroke="#a4caed" stroke-width="2.7428" style="paint-order:stroke fill markers"/><path d="m36.238 46.993c-3.7875 0-6.9074 2.381-6.9074 5.2714v63.256c0 2.8904 3.1199 5.2714 6.9074 5.2714h92.098c3.7875 0 6.9074-2.381 6.9074-5.2714v-56.228c0-2.8904-3.1199-5.2714-6.9074-5.2714h-55.114c0.19928 0-3.2359 6.22e-4 -3.8007-0.49416-0.56303-0.49483-1.2553-1.3158-1.9787-2.1964-0.72315-0.88065-1.4816-1.8203-2.4374-2.646-0.95576-0.82567-2.2745-1.6919-4.1597-1.6919z" fill="#8ab0de" stroke="#8ab0de" stroke-width="2.0114" style="paint-order:stroke fill markers"/><path d="m53.889 73.695c-2.4487 0-4.4659 1.4146-4.4659 3.1319v37.583c0 1.7173 2.0172 3.132 4.4659 3.132h59.545c2.4488 0 4.4659-1.4146 4.4659-3.132v-33.407c0-1.7173-2.0171-3.1319-4.4659-3.1319h-35.634c0.12884 0-2.0922 3.7e-4 -2.4573-0.2936-0.36402-0.294-0.8116-0.78175-1.2793-1.305-0.46755-0.52323-0.95788-1.0815-1.5759-1.5721-0.61794-0.49056-1.4706-1.0052-2.6894-1.0052z" fill="#408de5" stroke="#408de5" stroke-width="1.2466" style="paint-order:stroke fill markers"/></g><g font-family="Sans" font-size="14.111px" stroke-width=".26458" text-anchor="middle"><text x="65.310669" y="39.889034" text-align="center" style="font-variant-caps:normal;font-variant-east-asian:normal;font-variant-ligatures:none;font-variant-numeric:normal;line-height:1.25" xml:space="preserve"><tspan x="65.310669" y="39.889034" font-family="Sans" font-size="14.111px" stroke-width=".26458" style="font-variant-caps:normal;font-variant-east-asian:normal;font-variant-ligatures:none;font-variant-numeric:normal">Компонент</tspan></text><text x="46.954216" y="68.58551" text-align="center" style="font-variant-caps:normal;font-variant-east-asian:normal;font-variant-ligatures:none;font-variant-numeric:normal;line-height:1.25" xml:space="preserve"><tspan x="46.954216" y="68.58551" font-family="Sans" font-size="14.111px" stroke-width=".26458" style="font-variant-caps:normal;font-variant-east-asian:normal;font-variant-ligatures:none;font-variant-numeric:normal">N1</tspan></text><text x="84.510849" y="101.0514" text-align="center" style="font-variant-caps:normal;font-variant-east-asian:normal;font-variant-ligatures:none;font-variant-numeric:normal;line-height:1.25" xml:space="preserve"><tspan x="84.510849" y="101.0514" font-family="Sans" font-size="14.111px" stroke-width=".26458" style="font-variant-caps:normal;font-variant-east-asian:normal;font-variant-ligatures:none;font-variant-numeric:normal">FreeCAD</tspan></text></g></g></svg>
