<svg width="50px" height="50px" version="1.1" viewBox="0 0 50 50" xml:space="preserve" xmlns="http://www.w3.org/2000/svg"><g transform="matrix(.28643 0 0 .28643 9.6089 6.4757)"><g transform="matrix(3.4912 0 0 3.4912 -71.95 -151.78)" fill="none"><path d="m30.971 44.732c-5.0986-0.0025-9.2332 4.1301-9.2332 9.2287 0 5.0986 4.1346 9.2312 9.2332 9.2287 5.0951-0.0025 9.2242-4.1336 9.2242-9.2287 0-5.0951-4.1291-9.2262-9.2242-9.2287zm-4.6144 20.765c-5.0954-0.12378-9.2287 4.1318-9.2287 9.2287v2.3072c-1e-6 2.5484 2.0659 4.6144 4.6144 4.6144h10.457c2.5484 0 3.6358-2.2613 4.6144-4.6144l0.85756-2.0622c1.9571-4.7062 3.8667-9.1049-1.2287-9.2287z" clip-rule="evenodd" fill-rule="evenodd" stroke="currentColor" stroke-width="2"/><g transform="matrix(.054572 .20367 -.20367 .054572 54.674 53.931)" stroke="#1872f0" stroke-width="9.4854"><path d="m78.956 54.143 32.176 32.596v15.331h-15.223v-11.525h-12.614v-12.615h-12.072l-3.4895-11.368c-5.5581 3.706-12.301 5.8769-19.567 5.8769-19.03 0-34.464-14.882-34.464-33.235 0-18.353 15.434-33.235 34.464-33.235 19.031 0 34.463 14.882 34.463 33.235 0 5.3726-1.3249 10.446-3.6734 14.938zm-35.743-25.586c3.3959 0 6.1528 2.7545 6.1528 6.1528s-2.7569 6.1528-6.1528 6.1528c-3.3983 0-6.1528-2.7545-6.1528-6.1528-7.92e-4 -3.3983 2.7545-6.1528 6.1528-6.1528z" clip-rule="evenodd" fill="none" fill-rule="evenodd" stroke="#1872f0" stroke-width="9.4854"/></g></g></g></svg>
