<svg width="50px" height="50px" version="1.1" viewBox="0 0 50 50" xml:space="preserve" xmlns="http://www.w3.org/2000/svg"><title>data-transfer</title><path d="m4.3639 3.0053c-0.74083 1e-6 -1.3418 0.60096-1.3418 1.3418v23.166c8e-7 0.74083 0.60097 1.3418 1.3418 1.3418h12.959a5.8002 5.8002 0 0 1-0.58008-1.5098h-12.207v-22.834h10.695v6.127c0.0037 0.41595 0.34381 0.75196 0.75977 0.75195h6.2773v8.8516a5.8002 5.8002 0 0 1 0.125-2e-3 5.8002 5.8002 0 0 1 1.3828 0.16797v-9.8359l2e-3 0.01367c0-0.35212-0.48291-0.75916-0.71094-0.98047l-6.4961-6.3203c-0.14028-0.17707-0.35418-0.28068-0.58008-0.2793zm12.381 2.6465 4.5176 4.2324h-4.5176z" stroke-width=".88494"/><g transform="matrix(.040536 0 0 .040536 26.946 22.91)" clip-rule="evenodd" fill="currentColor" fill-rule="evenodd" image-rendering="optimizeQuality" shape-rendering="geometricPrecision" stroke="currentColor" stroke-width="4.2904"><path d="m114.18-175.58a18.12 18.12 0 0 0-6.4083 1.1082l-162.04 60.71a198.56 198.56 0 0 1 33.487 26.259l134.77-50.447 328.7 126.14-327.26 126.43-72.177-27.801a145.26 145.26 0 0 1 0.19273 6.601 145.26 145.26 0 0 1-3.3728 31.078l55.795 21.538v439.52l-344.17-128.98v-224.39a198.56 198.56 0 0 1-36.522-23.561v260.52h0.09636c0 7.3767 4.536 14.332 11.853 17.057l377.17 141.37c6.3301 2.4741 11.414 2.7792 18.839 0.14454l375.87-132.16c7.1028-2.4757 12.142-9.2578 12.142-17.201l0.43364-488.86c0-7.8599-3.7892-14.677-11.66-18.454l-379.34-145.46a18.12 18.12 0 0 0-6.4083-1.1564zm360.98 190.18-0.33728 450.84-342.43 120.46v-438.8l342.77-132.5z" fill="currentColor" stroke="none"/></g><path d="m19.199 23.933 1.2639-1.2639c0.25316-0.2512 0.66153-0.25121 0.91468 0l2.4586 2.4586 0.80654-0.80654c0.11987-0.13269 0.2982-0.19657 0.47507-0.17017 0.43253 0.078 0.44316 0.56724 0.46091 0.90406 0.04252 0.95366 0.01773 2.9922 0.0603 3.485 0.03943 0.3361-0.24533 0.62086-0.58145 0.58145-0.50343-0.03899-2.6519-0.01062-3.5701-0.06381-0.32794-0.02659-0.73564-0.06558-0.81185-0.45732-0.02594-0.17681 0.03786-0.35494 0.17017-0.47507l0.80832-0.80832-2.4622-2.4622c-0.24984-0.2576-0.24669-0.66805 0.0071-0.92177z" fill="#1872f0" stroke-width=".66154"/><g transform="translate(-19.095 -41.836)"><title>FreeCAD-symbol</title><g fill-rule="evenodd"><path d="m36.036 55.826-1.6958 1.6958h-3.3917v1.2719h1.6958v1.6958h-1.6958v2.1198l-1.6958 1.6958h1.7172c0.12857 0 0.24246-0.08278 0.28218-0.20506l0.30694-0.9447c0.02934-0.09034 0.10026-0.16103 0.1906-0.19039l0.23596-0.07668c0.09035-0.02939 0.18933-0.01377 0.26619 0.04205l0.80339 0.58386c0.10401 0.07556 0.24499 0.07556 0.349 0l0.72014-0.5234c0.10402-0.07557 0.14752-0.20941 0.10779-0.33169l-0.30694-0.9447c-0.02938-0.09035-0.01356-0.18933 0.04227-0.26619l0.14591-0.20068c0.05583-0.07685 0.1449-0.12246 0.2399-0.12247l0.99333 2.01e-4c0.12858 4e-6 0.24246-0.083 0.28218-0.20528l0.27518-0.84655c0.03972-0.12228-0.0038-0.25635-0.10779-0.33192l-0.80361-0.58386c-0.07685-0.05584-0.12225-0.1449-0.12225-0.2399v-0.24822c8e-6 -0.095 0.04539-0.18429 0.12225-0.24012l0.92126-0.66931c0.07687-0.05582 0.12226-0.1451 0.12226-0.24009z" fill="#418fde"/><path d="m34.34 54.13-1.6958 1.6958h1.6958v1.6958l1.6958-1.6958v-1.6958zm-5.0875 6.7833-1.6958 1.6958v1.6958h1.6958l1.6958-1.6958h-1.6958z" fill="#ff585d"/><path d="m29.253 54.13-1.6958 1.6958v6.7833l1.6958-1.6958v-5.0875h3.3917l1.6958-1.6958z" fill="#cb333b"/><path d="m29.253 62.609h1.6958v-2.1198h1.6958v-1.6958h-1.6958v-1.2719h3.3917v-1.6958h-5.0875z" fill="#fff"/></g></g></svg>
