<svg width="50px" height="50px" version="1.1" viewBox="0 0 50 50" xml:space="preserve" xmlns="http://www.w3.org/2000/svg"><g transform="matrix(.3369 0 0 .3369 10.009 3.9192)"><path fill="currentColor" stroke="none" d="m5.16 0h83.68c1.42 0 2.7 0.58 3.64 1.51l0.01 0.01c0.93 0.93 1.52 2.22 1.52 3.64v112.55c0 1.42-0.58 2.7-1.52 3.64l-0.01 0.01c-0.93 0.93-2.22 1.52-3.64 1.52h-83.68c-1.42 0-2.71-0.58-3.65-1.52-0.93-0.93-1.51-2.22-1.51-3.64v-112.56c0-1.42 0.58-2.7 1.52-3.64l0.01-0.01c0.93-0.93 2.22-1.51 3.63-1.51zm0.18 94.06h83.33v-88.72h-83.33zm83.33 5.34h-83.33v18.14h83.33z"/><path d="m70.783 105.8h10.88c0.55 0 1 0.45 1 1v3.83c0 0.55-0.45 1-1 1h-10.88c-0.55 0-1-0.45-1-1v-3.83c0.01-0.55 0.46-1 1-1z" fill="#1872f0"/></g></svg>
