<svg width="50px" height="50px" version="1.1" viewBox="0 0 50 50" xmlns="http://www.w3.org/2000/svg">
 <path d="m25 5c-11.035 0-20 8.9648-20 20-0.003906 0.35938 0.18359 0.69531 0.49609 0.87891 0.3125 0.17969 0.69531 0.17969 1.0078 0 0.3125-0.18359 0.5-0.51953 0.49609-0.87891 0-9.9531 8.0469-18 18-18 6.2461 0 11.727 3.1797 14.957 8h-6.957c-0.35938-0.003906-0.69531 0.18359-0.87891 0.49609-0.17969 0.3125-0.17969 0.69531 0 1.0078 0.18359 0.3125 0.51953 0.5 0.87891 0.49609h10v-10c0.003906-0.26953-0.10156-0.53125-0.29297-0.72266-0.19141-0.19141-0.45312-0.29688-0.72266-0.29297-0.55078 0.011719-0.99219 0.46484-0.98438 1.0156v6.0117c-3.6523-4.8633-9.4609-8.0117-16-8.0117zm18.984 18.984c-0.55078 0.011719-0.99219 0.46484-0.98438 1.0156 0 9.9531-8.0469 18-18 18-6.2461 0-11.73-3.1797-14.957-8h6.957c0.35938 0.007813 0.69531-0.18359 0.87891-0.49219 0.17969-0.3125 0.17969-0.69922 0-1.0117-0.18359-0.30859-0.51953-0.5-0.87891-0.49609h-8.5547c-0.12891-0.023437-0.25781-0.023437-0.38672 0h-1.0586v10c-0.003906 0.35938 0.18359 0.69531 0.49609 0.87891 0.3125 0.17969 0.69531 0.17969 1.0078 0 0.3125-0.18359 0.5-0.51953 0.49609-0.87891v-6.0156c3.6484 4.8633 9.4609 8.0156 16 8.0156 11.035 0 20-8.9648 20-20 0.003906-0.26953-0.10156-0.53125-0.29297-0.72266-0.19141-0.19141-0.45312-0.29688-0.72266-0.29297z" fill="currentColor"/>
 <path d="m21.527 15.59c-1.6142 0-2.9375 1.3233-2.9375 2.9375v13.558a0.67795 0.67795 0 0 0 1.0742 0.5499l5.2527-3.7822 5.2527 3.7822a0.67795 0.67795 0 0 0 1.0742-0.5499v-13.558c0-1.6142-1.3233-2.9375-2.9375-2.9375zm0 1.3558h6.7788c0.88128 0 1.5817 0.70045 1.5817 1.5817v12.235l-4.5748-3.2941a0.67795 0.67795 0 0 0-0.79263 0l-4.5748 3.2941v-12.235c0-0.88128 0.70045-1.5817 1.5817-1.5817z" fill="#1872f0" stroke-width=".45354"/>
</svg>
