<svg width="50px" height="50px" version="1.1" viewBox="0 0 50 50" xml:space="preserve" xmlns="http://www.w3.org/2000/svg"><g transform="matrix(.019792 0 0 .019792 12.202 30.552)" clip-rule="evenodd" fill="#1872f0" fill-rule="evenodd" image-rendering="optimizeQuality" shape-rendering="geometricPrecision"><path d="m0.041 102.17c-0.019-4.703 2.858-9.137 7.523-10.875l241.86-90.567a11.513 11.513 0 0 1 8.144 0.031l241 92.419c5.001 2.4 7.431 6.732 7.431 11.726l-0.259 310.62c0 5.047-3.238 9.339-7.751 10.912l-238.82 83.986c-4.718 1.674-7.93 1.476-11.952-0.096l-239.65-89.822c-4.649-1.731-7.523-6.141-7.523-10.828h-0.041v-306.53zm482.84 18.697-217.83 84.183v278.79l217.59-76.512zm-229.52-96.94-210.59 78.857 211.53 81.635 207.94-80.36zm-11.503 459.71v-279.25l-218.67-84.387v281.68z" fill="#1872f0" fill-rule="nonzero"/></g><text x="37.464523" y="38.582466" font-family="sans-serif" font-size="88.946px" stroke-width="2.2237" text-align="center" text-anchor="middle" style="line-height:1.25" xml:space="preserve"><tspan x="37.464523" y="38.582466" stroke-width="2.2237"/></text><path d="m14.037 28.787h-4.4473c-1.2281 0-2.2237 0.99556-2.2237 2.2237v8.8946c0 1.2281 0.99556 2.2237 2.2237 2.2237h31.131c1.2281 0 2.2237-0.99556 2.2237-2.2237v-8.8946c0-1.2281-0.99557-2.2237-2.2237-2.2237h-4.4473m0 6.671h0.02224" fill="none" stroke="currentColor" stroke-linecap="round" stroke-linejoin="round" stroke-width="2"/><path d="m25.155 9.2854v20.013m-8.8946-11.118 8.8946-11.118 8.8946 11.118" fill="none" stroke="#1872f0" stroke-linecap="round" stroke-linejoin="round" stroke-width="2"/></svg>
